<mxfile host="app.diagrams.net" modified="2020-11-13T16:00:43.291Z" agent="5.0 (Macintosh; Intel Mac OS X 10_15_7) AppleWebKit/605.1.15 (KHTML, like Gecko) Version/14.0 Safari/605.1.15" etag="MP9upLvpi_MwpXpNCZNC" version="13.9.2" type="github">
  <diagram id="Xfvj_RXTSbmuPJvJcs9L" name="Page-1">
    <mxGraphModel dx="1113" dy="1948" grid="1" gridSize="10" guides="1" tooltips="1" connect="1" arrows="1" fold="1" page="1" pageScale="1" pageWidth="827" pageHeight="1169" math="0" shadow="0">
      <root>
        <mxCell id="0" />
        <mxCell id="1" parent="0" />
        <mxCell id="1VG-6lsZDY0t3vp11iWN-4" value="Diagramma Caso D&#39;Uso &amp;nbsp;LOGIN" style="text;html=1;align=center;verticalAlign=middle;whiteSpace=wrap;rounded=0;fillColor=#fff2cc;strokeColor=#d6b656;" vertex="1" parent="1">
          <mxGeometry x="309" y="-1150" width="150" height="30" as="geometry" />
        </mxCell>
        <mxCell id="1VG-6lsZDY0t3vp11iWN-5" value="Direttore&lt;br&gt;Generale" style="shape=umlActor;verticalLabelPosition=bottom;verticalAlign=top;html=1;outlineConnect=0;" vertex="1" parent="1">
          <mxGeometry x="230" y="-1060" width="30" height="60" as="geometry" />
        </mxCell>
        <mxCell id="1VG-6lsZDY0t3vp11iWN-7" value="Responsabile &lt;br&gt;Vendite" style="shape=umlActor;verticalLabelPosition=bottom;verticalAlign=top;html=1;outlineConnect=0;" vertex="1" parent="1">
          <mxGeometry x="320" y="-1060" width="30" height="60" as="geometry" />
        </mxCell>
        <mxCell id="1VG-6lsZDY0t3vp11iWN-8" value="Magazziniere" style="shape=umlActor;verticalLabelPosition=bottom;verticalAlign=top;html=1;outlineConnect=0;" vertex="1" parent="1">
          <mxGeometry x="414" y="-1060" width="30" height="60" as="geometry" />
        </mxCell>
        <mxCell id="1VG-6lsZDY0t3vp11iWN-9" value="Commesso" style="shape=umlActor;verticalLabelPosition=bottom;verticalAlign=top;html=1;outlineConnect=0;" vertex="1" parent="1">
          <mxGeometry x="510" y="-1060" width="30" height="60" as="geometry" />
        </mxCell>
        <mxCell id="1VG-6lsZDY0t3vp11iWN-10" value="" style="endArrow=none;html=1;" edge="1" parent="1">
          <mxGeometry width="50" height="50" relative="1" as="geometry">
            <mxPoint x="380" y="-880" as="sourcePoint" />
            <mxPoint x="240" y="-960" as="targetPoint" />
          </mxGeometry>
        </mxCell>
        <mxCell id="1VG-6lsZDY0t3vp11iWN-12" value="" style="endArrow=none;html=1;" edge="1" parent="1">
          <mxGeometry width="50" height="50" relative="1" as="geometry">
            <mxPoint x="380" y="-880" as="sourcePoint" />
            <mxPoint x="340" y="-960" as="targetPoint" />
          </mxGeometry>
        </mxCell>
        <mxCell id="1VG-6lsZDY0t3vp11iWN-13" value="" style="endArrow=none;html=1;" edge="1" parent="1">
          <mxGeometry width="50" height="50" relative="1" as="geometry">
            <mxPoint x="380" y="-880" as="sourcePoint" />
            <mxPoint x="430" y="-960" as="targetPoint" />
          </mxGeometry>
        </mxCell>
        <mxCell id="1VG-6lsZDY0t3vp11iWN-14" value="" style="endArrow=none;html=1;" edge="1" parent="1">
          <mxGeometry width="50" height="50" relative="1" as="geometry">
            <mxPoint x="380" y="-880" as="sourcePoint" />
            <mxPoint x="520" y="-960" as="targetPoint" />
          </mxGeometry>
        </mxCell>
        <mxCell id="1VG-6lsZDY0t3vp11iWN-15" value="" style="endArrow=none;html=1;" edge="1" parent="1">
          <mxGeometry width="50" height="50" relative="1" as="geometry">
            <mxPoint x="380" y="-860" as="sourcePoint" />
            <mxPoint x="380" y="-880" as="targetPoint" />
          </mxGeometry>
        </mxCell>
        <mxCell id="1VG-6lsZDY0t3vp11iWN-16" value="" style="ellipse;whiteSpace=wrap;html=1;strokeColor=#000000;" vertex="1" parent="1">
          <mxGeometry x="320" y="-850" width="120" height="80" as="geometry" />
        </mxCell>
        <mxCell id="1VG-6lsZDY0t3vp11iWN-17" value="Login" style="text;html=1;strokeColor=none;fillColor=none;align=center;verticalAlign=middle;whiteSpace=wrap;rounded=0;fontStyle=1;fontSize=13;" vertex="1" parent="1">
          <mxGeometry x="360" y="-770" width="40" height="20" as="geometry" />
        </mxCell>
        <mxCell id="1VG-6lsZDY0t3vp11iWN-19" value="" style="endArrow=classic;html=1;exitX=0.5;exitY=1;exitDx=0;exitDy=0;dashed=1;entryX=0.467;entryY=0;entryDx=0;entryDy=0;entryPerimeter=0;" edge="1" parent="1" source="1VG-6lsZDY0t3vp11iWN-17" target="1VG-6lsZDY0t3vp11iWN-21">
          <mxGeometry width="50" height="50" relative="1" as="geometry">
            <mxPoint x="350" y="-730" as="sourcePoint" />
            <mxPoint x="380" y="-700" as="targetPoint" />
          </mxGeometry>
        </mxCell>
        <mxCell id="1VG-6lsZDY0t3vp11iWN-20" value="&lt;font style=&quot;font-size: 10px&quot;&gt;&amp;lt;&amp;lt;includes&amp;gt;&amp;gt;&lt;/font&gt;" style="text;html=1;align=center;verticalAlign=middle;resizable=0;points=[];autosize=1;" vertex="1" parent="1">
          <mxGeometry x="280" y="-740" width="80" height="20" as="geometry" />
        </mxCell>
        <mxCell id="1VG-6lsZDY0t3vp11iWN-21" value="" style="ellipse;whiteSpace=wrap;html=1;strokeColor=#000000;" vertex="1" parent="1">
          <mxGeometry x="324" y="-690" width="120" height="80" as="geometry" />
        </mxCell>
        <mxCell id="1VG-6lsZDY0t3vp11iWN-22" value="&lt;b&gt;Compila Form&lt;/b&gt;" style="text;html=1;align=center;verticalAlign=middle;resizable=0;points=[];autosize=1;fontSize=13;" vertex="1" parent="1">
          <mxGeometry x="330" y="-610" width="100" height="20" as="geometry" />
        </mxCell>
        <mxCell id="1VG-6lsZDY0t3vp11iWN-23" value="" style="ellipse;whiteSpace=wrap;html=1;strokeColor=#000000;fontSize=13;" vertex="1" parent="1">
          <mxGeometry x="324" y="-490" width="120" height="80" as="geometry" />
        </mxCell>
        <mxCell id="1VG-6lsZDY0t3vp11iWN-25" value="" style="ellipse;whiteSpace=wrap;html=1;strokeColor=#000000;fontSize=13;" vertex="1" parent="1">
          <mxGeometry x="110" y="-290" width="120" height="80" as="geometry" />
        </mxCell>
        <mxCell id="1VG-6lsZDY0t3vp11iWN-26" value="" style="endArrow=classic;html=1;dashed=1;fontSize=13;exitX=0.5;exitY=0;exitDx=0;exitDy=0;entryX=0.54;entryY=1;entryDx=0;entryDy=0;entryPerimeter=0;" edge="1" parent="1" source="1VG-6lsZDY0t3vp11iWN-23" target="1VG-6lsZDY0t3vp11iWN-22">
          <mxGeometry width="50" height="50" relative="1" as="geometry">
            <mxPoint x="300" y="-440" as="sourcePoint" />
            <mxPoint x="350" y="-490" as="targetPoint" />
          </mxGeometry>
        </mxCell>
        <mxCell id="1VG-6lsZDY0t3vp11iWN-27" value="" style="endArrow=classic;html=1;dashed=1;fontSize=13;entryX=0.5;entryY=0;entryDx=0;entryDy=0;exitX=0.494;exitY=1.071;exitDx=0;exitDy=0;exitPerimeter=0;" edge="1" parent="1" source="1VG-6lsZDY0t3vp11iWN-29" target="1VG-6lsZDY0t3vp11iWN-25">
          <mxGeometry width="50" height="50" relative="1" as="geometry">
            <mxPoint x="370" y="-390" as="sourcePoint" />
            <mxPoint x="440" y="-460" as="targetPoint" />
          </mxGeometry>
        </mxCell>
        <mxCell id="1VG-6lsZDY0t3vp11iWN-29" value="&lt;b&gt;Campo Email o password non validi&lt;/b&gt;" style="text;html=1;align=center;verticalAlign=middle;resizable=0;points=[];autosize=1;fontSize=13;" vertex="1" parent="1">
          <mxGeometry x="270" y="-400" width="240" height="20" as="geometry" />
        </mxCell>
        <mxCell id="1VG-6lsZDY0t3vp11iWN-30" value="Compila il form con i dati corretti" style="text;html=1;align=center;verticalAlign=middle;resizable=0;points=[];autosize=1;fontSize=13;fontStyle=1" vertex="1" parent="1">
          <mxGeometry x="60" y="-200" width="220" height="20" as="geometry" />
        </mxCell>
        <mxCell id="1VG-6lsZDY0t3vp11iWN-31" value="&lt;font style=&quot;font-size: 10px&quot;&gt;&amp;lt;&amp;lt;extends&amp;gt;&amp;gt;&lt;/font&gt;" style="text;html=1;align=center;verticalAlign=middle;resizable=0;points=[];autosize=1;" vertex="1" parent="1">
          <mxGeometry x="285" y="-550" width="70" height="20" as="geometry" />
        </mxCell>
        <mxCell id="1VG-6lsZDY0t3vp11iWN-32" value="&lt;font style=&quot;font-size: 10px&quot;&gt;&amp;lt;&amp;lt;includes&amp;gt;&amp;gt;&lt;/font&gt;" style="text;html=1;align=center;verticalAlign=middle;resizable=0;points=[];autosize=1;" vertex="1" parent="1">
          <mxGeometry x="285" y="-330" width="80" height="20" as="geometry" />
        </mxCell>
      </root>
    </mxGraphModel>
  </diagram>
</mxfile>
